<svg width="20" height="20" viewBox="0 0 20 20" fill="none" xmlns="http://www.w3.org/2000/svg">
<path d="M8.14815 9.10394C8.05257 9.16766 7.94504 9.2274 7.82557 9.28315C7.70609 9.33891 7.56671 9.36679 7.40741 9.36679H6.26045V7.50299H7.24014C7.41537 7.50299 7.56671 7.51892 7.69415 7.55078C7.82159 7.58264 7.94106 7.62246 8.05257 7.67025C8.18001 7.71804 8.27161 7.80566 8.32736 7.93309C8.38311 8.06053 8.41099 8.21187 8.41099 8.3871C8.41099 8.73755 8.32338 8.9765 8.14815 9.10394ZM8.12425 10.6571C8.26762 10.7368 8.37515 10.8284 8.44683 10.9319C8.51852 11.0354 8.55436 11.1908 8.55436 11.3979C8.55436 11.8598 8.40303 12.1705 8.10036 12.3297C7.9092 12.4413 7.67822 12.497 7.40741 12.497H6.26045V10.6093H7.82557L8.12425 10.6571ZM15.006 0C15.691 0 16.3361 0.131422 16.9415 0.394265C17.5468 0.657109 18.0765 1.01553 18.5305 1.46953C18.9845 1.92354 19.3429 2.45321 19.6057 3.05854C19.8686 3.66388 20 4.30904 20 4.99403V14.9821C20 15.6671 19.8686 16.3162 19.6057 16.9295C19.3429 17.5428 18.9845 18.0765 18.5305 18.5305C18.0765 18.9845 17.5468 19.3429 16.9415 19.6057C16.3361 19.8686 15.691 20 15.006 20H4.99403C4.30904 20 3.66388 19.8686 3.05854 19.6057C2.45321 19.3429 1.92354 18.9845 1.46953 18.5305C1.01553 18.0765 0.657109 17.5428 0.394265 16.9295C0.131422 16.3162 0 15.6671 0 14.9821V4.99403C0 4.30904 0.131422 3.66388 0.394265 3.05854C0.657109 2.45321 1.01553 1.92354 1.46953 1.46953C1.92354 1.01553 2.45321 0.657109 3.05854 0.394265C3.66388 0.131422 4.30904 0 4.99403 0H15.006ZM11.8757 7.50299H14.3847V6.23656H11.8757V7.50299ZM9.70131 12.6643C9.9084 12.2979 10.0119 11.8996 10.0119 11.4695C10.0119 11.0554 9.91637 10.689 9.72521 10.3704C9.54998 10.0836 9.28714 9.86858 8.93668 9.72521C9.1597 9.59777 9.33493 9.4544 9.46237 9.2951C9.66945 9.02429 9.773 8.65791 9.773 8.19594C9.773 7.73397 9.66945 7.35165 9.46237 7.04898C9.12784 6.53923 8.53843 6.26842 7.69415 6.23656H4.37276V13.7395H7.47909C7.65432 13.7395 7.82159 13.7316 7.98088 13.7157C8.14018 13.6997 8.29152 13.6758 8.43489 13.644C8.73755 13.5643 8.99243 13.4369 9.19952 13.2616C9.31103 13.182 9.40263 13.0944 9.47431 12.9988C9.546 12.9032 9.62167 12.7917 9.70131 12.6643ZM15.6272 11.2306C15.6113 11.0872 15.6033 10.9518 15.6033 10.8244C15.6033 10.7129 15.5994 10.6014 15.5914 10.4898C15.5834 10.3783 15.5795 10.2907 15.5795 10.227C15.5476 10.004 15.4998 9.80884 15.4361 9.64158C15.3724 9.47431 15.2927 9.31103 15.1971 9.15173C14.9741 8.78535 14.7033 8.5225 14.3847 8.3632C14.0661 8.2039 13.6997 8.12425 13.2855 8.12425C12.5846 8.12425 12.0191 8.3632 11.589 8.8411C11.1589 9.35086 10.9438 10.0597 10.9438 10.9677C10.9438 11.9395 11.1828 12.6404 11.6607 13.0705C12.1386 13.5006 12.6961 13.7157 13.3333 13.7157C13.6997 13.7157 14.0303 13.644 14.325 13.5006C14.6197 13.3572 14.8785 13.1581 15.1016 12.9032C15.229 12.728 15.3325 12.5687 15.4122 12.4253C15.4918 12.282 15.5396 12.0988 15.5556 11.8757H14.2891C14.2573 12.0988 14.2214 12.2143 14.1816 12.2222C14.1418 12.2302 14.098 12.2581 14.0502 12.3059C13.9546 12.3855 13.8511 12.4532 13.7395 12.509C13.628 12.5647 13.5006 12.5926 13.3572 12.5926C13.0864 12.5926 12.8554 12.5209 12.6643 12.3775C12.5209 12.282 12.4094 12.1466 12.3297 11.9713C12.2501 11.7961 12.2023 11.5492 12.1864 11.2306H15.6272ZM13.2855 9.36679C13.5723 9.36679 13.8112 9.46237 14.0024 9.65352C14.1139 9.7491 14.1935 9.85265 14.2413 9.96416C14.2891 10.0757 14.321 10.2907 14.3369 10.6093H12.2103C12.2421 10.2907 12.2859 10.0836 12.3417 9.98805C12.3975 9.89247 12.4652 9.78893 12.5448 9.67742C12.72 9.47033 12.9669 9.36679 13.2855 9.36679Z" fill="#181817"/>
</svg>
