<svg width="20" height="20" viewBox="0 0 20 20" fill="none" xmlns="http://www.w3.org/2000/svg">
<path d="M13.9546 8.07646C14.3847 8.07646 14.7431 8.24373 15.0299 8.57826C15.221 8.8172 15.3246 9.12784 15.3405 9.51016H12.5209C12.5368 9.08005 12.6882 8.73755 12.9749 8.48268C13.2457 8.21187 13.5723 8.07646 13.9546 8.07646ZM15.006 0C15.691 0 16.3361 0.131422 16.9415 0.394265C17.5468 0.657109 18.0765 1.01553 18.5305 1.46953C18.9845 1.92354 19.3429 2.45321 19.6057 3.05854C19.8686 3.66388 20 4.30904 20 4.99403V14.9821C20 15.6671 19.8686 16.3162 19.6057 16.9295C19.3429 17.5428 18.9845 18.0765 18.5305 18.5305C18.0765 18.9845 17.5468 19.3429 16.9415 19.6057C16.3361 19.8686 15.691 20 15.006 20H4.99403C4.30904 20 3.66388 19.8686 3.05854 19.6057C2.45321 19.3429 1.92354 18.9845 1.46953 18.5305C1.01553 18.0765 0.657109 17.5428 0.394265 16.9295C0.131422 16.3162 0 15.6671 0 14.9821V4.99403C0 4.30904 0.131422 3.66388 0.394265 3.05854C0.657109 2.45321 1.01553 1.92354 1.46953 1.46953C1.92354 1.01553 2.45321 0.657109 3.05854 0.394265C3.66388 0.131422 4.30904 0 4.99403 0H15.006ZM10.6093 9.05615C10.6093 8.51454 10.4739 8.09239 10.2031 7.78973C9.9323 7.51892 9.54202 7.38351 9.03226 7.38351C8.39506 7.38351 7.87734 7.67822 7.47909 8.26762C7.38351 7.98088 7.21625 7.76583 6.9773 7.62246C6.75428 7.46316 6.44365 7.38351 6.0454 7.38351C5.71087 7.38351 5.4082 7.46316 5.1374 7.62246C4.89845 7.7499 4.69136 7.94106 4.51613 8.19594V7.50299H3.75149V12.497H4.61171V9.89247C4.61171 9.44644 4.6595 9.10394 4.75508 8.86499C4.8188 8.64198 4.96217 8.45878 5.18519 8.31541C5.37634 8.18797 5.59936 8.12425 5.85424 8.12425C6.17284 8.12425 6.40382 8.21983 6.54719 8.41099C6.69056 8.58622 6.76225 8.86499 6.76225 9.24731V12.497H7.62246V9.58184C7.62246 9.05615 7.73397 8.6818 7.95699 8.45878C8.21187 8.23576 8.50657 8.12425 8.8411 8.12425C9.04819 8.12425 9.22342 8.17204 9.36679 8.26762C9.49423 8.33134 9.59777 8.45082 9.67742 8.62605C9.72521 8.76941 9.7491 9.00836 9.7491 9.34289V12.497H10.6093V9.05615ZM16.2485 9.98805C16.2485 9.17563 16.0335 8.53843 15.6033 8.07646C15.1732 7.6145 14.6237 7.38351 13.9546 7.38351C13.2537 7.38351 12.6882 7.6145 12.2581 8.07646C11.812 8.53843 11.589 9.19156 11.589 10.0358C11.589 10.8483 11.8041 11.4775 12.2342 11.9235C12.6643 12.3696 13.2537 12.5926 14.0024 12.5926C14.5918 12.5926 15.0697 12.4572 15.4361 12.1864C15.8184 11.8996 16.0812 11.5014 16.2246 10.9916L15.3405 10.8722C15.1971 11.2386 15.0219 11.5014 14.8148 11.6607C14.6077 11.82 14.3369 11.8996 14.0024 11.8996C13.5882 11.8996 13.2378 11.7563 12.951 11.4695C12.6483 11.1828 12.489 10.7607 12.4731 10.2031H16.2485V9.98805Z" fill="#181817"/>
</svg>
