<svg width="20" height="20" viewBox="0 0 20 20" fill="none" xmlns="http://www.w3.org/2000/svg">
<path d="M11.0633 9.15173C11.5571 8.92871 12.039 8.66587 12.509 8.3632C12.9789 8.06053 13.4289 7.72601 13.859 7.35962C14.1298 7.74194 14.3329 8.15611 14.4683 8.60215C14.6037 9.04819 14.6794 9.50219 14.6953 9.96416C14.09 9.82079 13.4926 9.7491 12.9032 9.7491C12.6643 9.7491 12.4174 9.76105 12.1625 9.78495C11.9076 9.80884 11.6448 9.85265 11.374 9.91637L11.2306 9.53405L11.0633 9.15173ZM15.006 0C15.691 0 16.3361 0.131422 16.9415 0.394265C17.5468 0.657109 18.0765 1.01553 18.5305 1.46953C18.9845 1.92354 19.3429 2.45321 19.6057 3.05854C19.8686 3.66388 20 4.30904 20 4.99403V14.9821C20 15.6671 19.8686 16.3162 19.6057 16.9295C19.3429 17.5428 18.9845 18.0765 18.5305 18.5305C18.0765 18.9845 17.5468 19.3429 16.9415 19.6057C16.3361 19.8686 15.691 20 15.006 20H4.99403C4.30904 20 3.66388 19.8686 3.05854 19.6057C2.45321 19.3429 1.92354 18.9845 1.46953 18.5305C1.01553 18.0765 0.657109 17.5428 0.394265 16.9295C0.131422 16.3162 0 15.6671 0 14.9821V4.99403C0 4.30904 0.131422 3.66388 0.394265 3.05854C0.657109 2.45321 1.01553 1.92354 1.46953 1.46953C1.92354 1.01553 2.45321 0.657109 3.05854 0.394265C3.66388 0.131422 4.30904 0 4.99403 0H15.006ZM10.0119 15.6272C10.7766 15.6272 11.5014 15.4799 12.1864 15.1852C12.8714 14.8905 13.4687 14.4883 13.9785 13.9785C14.4883 13.4687 14.8905 12.8714 15.1852 12.1864C15.4799 11.5014 15.6272 10.7686 15.6272 9.98805C15.6272 9.22342 15.4799 8.49861 15.1852 7.81362C14.8905 7.12863 14.4883 6.53126 13.9785 6.02151C13.4687 5.51175 12.8714 5.10952 12.1864 4.81482C11.5014 4.52011 10.7766 4.37276 10.0119 4.37276C9.23138 4.37276 8.49861 4.52011 7.81362 4.81482C7.12863 5.10952 6.53126 5.51175 6.02151 6.02151C5.51175 6.53126 5.10952 7.12863 4.81482 7.81362C4.52011 8.49861 4.37276 9.22342 4.37276 9.98805C4.37276 10.7686 4.52011 11.5014 4.81482 12.1864C5.10952 12.8714 5.51175 13.4687 6.02151 13.9785C6.53126 14.4883 7.12863 14.8905 7.81362 15.1852C8.49861 15.4799 9.23138 15.6272 10.0119 15.6272ZM11.7085 10.8005C12.1545 10.7208 12.5528 10.681 12.9032 10.681C13.4926 10.681 14.0581 10.7607 14.5998 10.92C14.4723 11.5731 14.2135 12.1705 13.8232 12.7121C13.4329 13.2537 12.951 13.6918 12.3775 14.0263C12.3138 13.4687 12.2262 12.9192 12.1147 12.3775C12.0032 11.8359 11.8678 11.3102 11.7085 10.8005ZM13.2616 6.64277C12.8475 6.9773 12.4253 7.28395 11.9952 7.56272C11.5651 7.8415 11.1191 8.08443 10.6571 8.29152C10.3863 7.79769 10.0996 7.31581 9.79689 6.84588C9.49423 6.37595 9.1597 5.91796 8.79331 5.47192C8.98447 5.42413 9.17961 5.38431 9.37873 5.35245C9.57786 5.32059 9.78893 5.30466 10.0119 5.30466C10.6173 5.30466 11.1987 5.42015 11.7563 5.65113C12.3138 5.88212 12.8156 6.21266 13.2616 6.64277ZM7.28793 13.8112C7.70211 13.1422 8.20789 12.5727 8.80526 12.1027C9.40263 11.6328 10.0597 11.2784 10.7766 11.0394C11.143 12.1386 11.374 13.2696 11.4695 14.4325C11.0076 14.5918 10.5217 14.6714 10.0119 14.6714C8.9765 14.6714 8.0685 14.3847 7.28793 13.8112ZM10.466 10.1553C9.66945 10.4261 8.93668 10.8164 8.26762 11.3262C7.59857 11.8359 7.03305 12.4492 6.57109 13.1661C5.79052 12.3377 5.37634 11.3501 5.32855 10.2031C5.45599 10.219 5.5675 10.227 5.66308 10.227H5.97372C6.69056 10.227 7.40343 10.1673 8.11231 10.0478C8.82119 9.92832 9.51016 9.74114 10.1792 9.48626C10.2429 9.59777 10.2947 9.70928 10.3345 9.82079C10.3744 9.9323 10.4182 10.0438 10.466 10.1553ZM9.773 8.64994C8.5464 9.08005 7.27997 9.2951 5.97372 9.2951H5.65113L5.37634 9.27121C5.48785 8.53843 5.76264 7.86937 6.20072 7.26404C6.63879 6.6587 7.19235 6.1808 7.86141 5.83035C8.59419 6.70649 9.23138 7.64636 9.773 8.64994Z" fill="#181817"/>
</svg>
